<svg xmlns="http://www.w3.org/2000/svg" style="overflow: auto; display: block; width: 759px; height: 607px;" width="759px" height="607px" viewBox="0 0 759 607" xmlns:xlink="http://www.w3.org/1999/xlink"><rect width="759px" height="607px" fill="white"/><clipPath id="ygc111_3"><rect x="25" y="25" width="708.635" height="556.745"/></clipPath><g clip-path="url(#ygc111_3)"><g style="pointer-events:visiblePainted" transform="translate(17.25 209.995)" image-rendering="auto" shape-rendering="auto"><g style="box-sizing:initial;"><g transform="translate(500.505 -179.995)" class="y-group-node yfiles-expanded"><path d="M 105.44 0H 206.88A 4 4 0 0 1 210.88 4V 199A 4 4 0 0 1 206.88 203H 4A 4 4 0 0 1 0 199V 4A 4 4 0 0 1 4 0z" fill="rgb(11,113,137)" fill-opacity="1" class="yfiles-tab-top yfiles-group-node-tab"/><path d="M 105.44 23H 205.88A 2 2 0 0 1 207.88 25V 198A 2 2 0 0 1 205.88 200H 5A 2 2 0 0 1 3 198V 25A 2 2 0 0 1 5 23z" fill="rgb(255,255,255)" fill-opacity="1" class="yfiles-content-transparent yfiles-group-node-content"/><path d="M 105.44 0H 206.88A 4 4 0 0 1 210.88 4V 199A 4 4 0 0 1 206.88 203H 4A 4 4 0 0 1 0 199V 4A 4 4 0 0 1 4 0z" fill="none" stroke="rgb(11,113,137)" stroke-opacity="1" stroke-width="2" stroke-linecap="square" stroke-linejoin="miter" stroke-miterlimit="10" class="yfiles-group-node-stroke"/></g><g transform="translate(503.505 -176.995)"><text font-family="Arial" font-size="12px" font-style="normal" font-weight="normal" text-decoration="none" text-anchor="middle" fill="rgb(238,238,238)" fill-opacity="1" xml:space="preserve" transform="translate(102.44 1.3000001907348633)"><tspan class="yfiles-label-p" dy="11.199996948242188px" x="0"><tspan class="yfiles-label-strong" style="font-weight: bold;">lib</tspan></tspan></text></g><g transform="translate(527.25 -152.995)" class="y-group-node yfiles-expanded"><path d="M 79.5 0H 155A 4 4 0 0 1 159 4V 165A 4 4 0 0 1 155 169H 4A 4 4 0 0 1 0 165V 4A 4 4 0 0 1 4 0z" fill="rgb(140,139,139)" fill-opacity="1" class="yfiles-group-node-tab-background"/><path d="M 79.5 169H 4A 4 4 0 0 1 0 165V 24A 4 4 0 0 1 4 20H 116.52786404500043A 4 4 0 0 0 120.10557280900008 17.78885438199983L 127.89442719099992 2.211145618000171A 4 4 0 0 1 131.47213595499957 0H 155A 4 4 0 0 1 159 4V 165A 4 4 0 0 1 155 169z" fill="rgb(191,190,190)" fill-opacity="1" class="yfiles-tab-top-trailing yfiles-group-node-tab"/><path d="M 79.5 23H 154A 2 2 0 0 1 156 25V 164A 2 2 0 0 1 154 166H 5A 2 2 0 0 1 3 164V 25A 2 2 0 0 1 5 23z" fill="rgb(255,255,255)" fill-opacity="1" class="yfiles-content-transparent yfiles-group-node-content"/><path d="M 79.5 169H 4A 4 4 0 0 1 0 165V 24A 4 4 0 0 1 4 20H 116.52786404500043A 4 4 0 0 0 120.10557280900008 17.78885438199983L 127.89442719099992 2.211145618000171A 4 4 0 0 1 131.47213595499957 0H 155A 4 4 0 0 1 159 4V 165A 4 4 0 0 1 155 169zM 79.5 0H 155A 4 4 0 0 1 159 4V 165A 4 4 0 0 1 155 169H 4A 4 4 0 0 1 0 165V 4A 4 4 0 0 1 4 0z" fill="none" stroke="rgb(140,139,139)" stroke-opacity="1" stroke-width="2" stroke-linecap="square" stroke-linejoin="miter" stroke-miterlimit="10" class="yfiles-group-node-stroke"/><g transform="translate(147 12)"><g class="yfiles-group-node-icon yfiles-icon-minus yfiles-icon-background-round-rectangle-solid"><rect fill="rgb(255,255,255)" fill-opacity="0" x="-7" y="-7" width="14" height="14"/><path d="M4.8999999999999995,-7a2.1,2.1,0,0,1,2.1,2.1v9.799999999999999a2.1,2.1,0,0,1,-2.1,2.1h-9.799999999999999a2.1,2.1,0,0,1,-2.1,-2.1v-9.799999999999999a2.1,2.1,0,0,1,2.1,-2.1Z" fill-rule="evenodd" fill="rgb(255,255,255)" fill-opacity="1" class="yfiles-icon-background"/><g fill="rgb(140,139,139)" fill-opacity="1" class="yfiles-icon-foreground"><path d="M-3.5,-0.7000000000000001h7v1.4000000000000001h-7Z" style="transform: rotate(0deg);" transform="rotate(0)"/></g></g></g></g><g transform="translate(530.25 -149.995)"><text font-family="Arial" font-size="12px" font-style="normal" font-weight="normal" text-decoration="none" text-anchor="start" fill="rgb(238,238,238)" fill-opacity="1" dy="0.9333330790201823em" transform="translate(0 1.3000001907348633)">org.enso.lib</text></g><image width="67.5" height="60" x="574.562" y="-65.995" xlink:href="data:image/svg+xml;charset=utf-8,%3Csvg%20xmlns%3D%22http%3A%2F%2Fwww.w3.org%2F2000%2Fsvg%22%20viewBox%3D%220%200%20640%20512%22%20width%3D%22640%22%20height%3D%22512%22%20fill%3D%22rgb(253%2C201%2C116)%22%20fill-opacity%3D%221%22%3E%3Cpath%20d%3D%22M192%20384h192c53%200%2096-43%2096-96h32c70.6%200%20128-57.4%20128-128S582.6%2032%20512%2032H120c-13.3%200-24%2010.7-24%2024v232c0%2053%2043%2096%2096%2096zM512%2096c35.3%200%2064%2028.7%2064%2064s-28.7%2064-64%2064h-32V96h32zm47.7%20384H48.3c-47.6%200-61-64-36-64h583.3c25%200%2011.8%2064-35.9%2064z%22%2F%3E%3C%2Fsvg%3E"/><g transform="translate(587.3125 -43.495000000000005)"><text font-family="Arial" font-size="12px" font-style="normal" font-weight="normal" text-decoration="none" text-anchor="middle" fill="rgb(0,0,0)" fill-opacity="1" dy="0.9333330790201823em" transform="translate(21 0.3000001907348633)">Lib.java</text></g><image width="67.5" height="60" x="574.562" y="-125.995" xlink:href="data:image/svg+xml;charset=utf-8,%3Csvg%20xmlns%3D%22http%3A%2F%2Fwww.w3.org%2F2000%2Fsvg%22%20viewBox%3D%220%200%20640%20512%22%20width%3D%22640%22%20height%3D%22512%22%20fill%3D%22rgb(253%2C201%2C116)%22%20fill-opacity%3D%221%22%3E%3Cpath%20d%3D%22M192%20384h192c53%200%2096-43%2096-96h32c70.6%200%20128-57.4%20128-128S582.6%2032%20512%2032H120c-13.3%200-24%2010.7-24%2024v232c0%2053%2043%2096%2096%2096zM512%2096c35.3%200%2064%2028.7%2064%2064s-28.7%2064-64%2064h-32V96h32zm47.7%20384H48.3c-47.6%200-61-64-36-64h583.3c25%200%2011.8%2064-35.9%2064z%22%2F%3E%3C%2Fsvg%3E"/><g transform="translate(575.3125 -103.495)"><text font-family="Arial" font-size="12px" font-style="normal" font-weight="normal" text-decoration="none" text-anchor="middle" fill="rgb(0,0,0)" fill-opacity="1" dy="0.9333330790201823em" transform="translate(33 0.3000001907348633)">Service.java</text></g><g transform="translate(57.8125 -173.6825)" class="y-group-node yfiles-expanded"><path d="M 105.4375 0H 206.875A 4 4 0 0 1 210.875 4V 186.3125A 4 4 0 0 1 206.875 190.3125H 4A 4 4 0 0 1 0 186.3125V 4A 4 4 0 0 1 4 0z" fill="rgb(11,113,137)" fill-opacity="1" class="yfiles-tab-top yfiles-group-node-tab"/><path d="M 105.4375 23H 205.875A 2 2 0 0 1 207.875 25V 185.3125A 2 2 0 0 1 205.875 187.3125H 5A 2 2 0 0 1 3 185.3125V 25A 2 2 0 0 1 5 23z" fill="rgb(255,255,255)" fill-opacity="1" class="yfiles-content-transparent yfiles-group-node-content"/><path d="M 105.4375 0H 206.875A 4 4 0 0 1 210.875 4V 186.3125A 4 4 0 0 1 206.875 190.3125H 4A 4 4 0 0 1 0 186.3125V 4A 4 4 0 0 1 4 0z" fill="none" stroke="rgb(11,113,137)" stroke-opacity="1" stroke-width="2" stroke-linecap="square" stroke-linejoin="miter" stroke-miterlimit="10" class="yfiles-group-node-stroke"/></g><g transform="translate(60.8125 -170.6825)"><text font-family="Arial" font-size="12px" font-style="normal" font-weight="normal" text-decoration="none" text-anchor="middle" fill="rgb(238,238,238)" fill-opacity="1" xml:space="preserve" transform="translate(102.4375 1.3000001907348633)"><tspan class="yfiles-label-p" dy="11.199996948242188px" x="0"><tspan class="yfiles-label-strong" style="font-weight: bold;">utils</tspan></tspan></text></g><g transform="translate(84.3125 -132.245)" class="y-group-node yfiles-expanded"><path d="M 79.5 0H 155A 4 4 0 0 1 159 4V 129.5A 4 4 0 0 1 155 133.5H 4A 4 4 0 0 1 0 129.5V 4A 4 4 0 0 1 4 0z" fill="rgb(140,139,139)" fill-opacity="1" class="yfiles-group-node-tab-background"/><path d="M 79.5 133.5H 4A 4 4 0 0 1 0 129.5V 24A 4 4 0 0 1 4 20H 116.52786404500043A 4 4 0 0 0 120.10557280900008 17.78885438199983L 127.89442719099992 2.211145618000171A 4 4 0 0 1 131.47213595499957 0H 155A 4 4 0 0 1 159 4V 129.5A 4 4 0 0 1 155 133.5z" fill="rgb(191,190,190)" fill-opacity="1" class="yfiles-tab-top-trailing yfiles-group-node-tab"/><path d="M 79.5 23H 154A 2 2 0 0 1 156 25V 128.5A 2 2 0 0 1 154 130.5H 5A 2 2 0 0 1 3 128.5V 25A 2 2 0 0 1 5 23z" fill="rgb(255,255,255)" fill-opacity="1" class="yfiles-content-transparent yfiles-group-node-content"/><path d="M 79.5 133.5H 4A 4 4 0 0 1 0 129.5V 24A 4 4 0 0 1 4 20H 116.52786404500043A 4 4 0 0 0 120.10557280900008 17.78885438199983L 127.89442719099992 2.211145618000171A 4 4 0 0 1 131.47213595499957 0H 155A 4 4 0 0 1 159 4V 129.5A 4 4 0 0 1 155 133.5zM 79.5 0H 155A 4 4 0 0 1 159 4V 129.5A 4 4 0 0 1 155 133.5H 4A 4 4 0 0 1 0 129.5V 4A 4 4 0 0 1 4 0z" fill="none" stroke="rgb(140,139,139)" stroke-opacity="1" stroke-width="2" stroke-linecap="square" stroke-linejoin="miter" stroke-miterlimit="10" class="yfiles-group-node-stroke"/><g transform="translate(147 12)"><g class="yfiles-group-node-icon yfiles-icon-minus yfiles-icon-background-round-rectangle-solid"><rect fill="rgb(255,255,255)" fill-opacity="0" x="-7" y="-7" width="14" height="14"/><path d="M4.8999999999999995,-7a2.1,2.1,0,0,1,2.1,2.1v9.799999999999999a2.1,2.1,0,0,1,-2.1,2.1h-9.799999999999999a2.1,2.1,0,0,1,-2.1,-2.1v-9.799999999999999a2.1,2.1,0,0,1,2.1,-2.1Z" fill-rule="evenodd" fill="rgb(255,255,255)" fill-opacity="1" class="yfiles-icon-background"/><g fill="rgb(140,139,139)" fill-opacity="1" class="yfiles-icon-foreground"><path d="M-3.5,-0.7000000000000001h7v1.4000000000000001h-7Z" style="transform: rotate(0deg);" transform="rotate(0)"/></g></g></g></g><g transform="translate(87.3125 -129.245)"><text font-family="Arial" font-size="12px" font-style="normal" font-weight="normal" text-decoration="none" text-anchor="start" fill="rgb(238,238,238)" fill-opacity="1" dy="0.9333330790201823em" transform="translate(0 1.3000001907348633)">org.enso.lib</text></g><image width="67.5" height="60" x="126.125" y="-65.995" xlink:href="data:image/svg+xml;charset=utf-8,%3Csvg%20xmlns%3D%22http%3A%2F%2Fwww.w3.org%2F2000%2Fsvg%22%20viewBox%3D%220%200%20640%20512%22%20width%3D%22640%22%20height%3D%22512%22%20fill%3D%22rgb(253%2C201%2C116)%22%20fill-opacity%3D%221%22%3E%3Cpath%20d%3D%22M192%20384h192c53%200%2096-43%2096-96h32c70.6%200%20128-57.4%20128-128S582.6%2032%20512%2032H120c-13.3%200-24%2010.7-24%2024v232c0%2053%2043%2096%2096%2096zM512%2096c35.3%200%2064%2028.7%2064%2064s-28.7%2064-64%2064h-32V96h32zm47.7%20384H48.3c-47.6%200-61-64-36-64h583.3c25%200%2011.8%2064-35.9%2064z%22%2F%3E%3C%2Fsvg%3E"/><g transform="translate(135.375 -43.495000000000005)"><text font-family="Arial" font-size="12px" font-style="normal" font-weight="normal" text-decoration="none" text-anchor="middle" fill="rgb(0,0,0)" fill-opacity="1" dy="0.9333330790201823em" transform="translate(24.5 0.3000001907348633)">Utils.java</text></g><g transform="translate(376.75 184.375)" class="y-group-node yfiles-expanded"><path d="M 101.9375 0H 199.875A 4 4 0 0 1 203.875 4V 139.625A 4 4 0 0 1 199.875 143.625H 4A 4 4 0 0 1 0 139.625V 4A 4 4 0 0 1 4 0z" fill="rgb(11,113,137)" fill-opacity="1" class="yfiles-tab-top yfiles-group-node-tab"/><path d="M 101.9375 23H 198.875A 2 2 0 0 1 200.875 25V 138.625A 2 2 0 0 1 198.875 140.625H 5A 2 2 0 0 1 3 138.625V 25A 2 2 0 0 1 5 23z" fill="rgb(255,255,255)" fill-opacity="1" class="yfiles-content-transparent yfiles-group-node-content"/><path d="M 101.9375 0H 199.875A 4 4 0 0 1 203.875 4V 139.625A 4 4 0 0 1 199.875 143.625H 4A 4 4 0 0 1 0 139.625V 4A 4 4 0 0 1 4 0z" fill="none" stroke="rgb(11,113,137)" stroke-opacity="1" stroke-width="2" stroke-linecap="square" stroke-linejoin="miter" stroke-miterlimit="10" class="yfiles-group-node-stroke"/></g><g transform="translate(379.75 187.375)"><text font-family="Arial" font-size="12px" font-style="normal" font-weight="normal" text-decoration="none" text-anchor="middle" fill="rgb(238,238,238)" fill-opacity="1" xml:space="preserve" transform="translate(98.9375 1.3000001907348633)"><tspan class="yfiles-label-p" dy="11.199996948242188px" x="0"><tspan class="yfiles-label-strong" style="font-weight: bold;">runner</tspan></tspan></text></g><image width="67.5" height="60" x="444.312" y="232.5" xlink:href="data:image/svg+xml;charset=utf-8,%3Csvg%20xmlns%3D%22http%3A%2F%2Fwww.w3.org%2F2000%2Fsvg%22%20viewBox%3D%220%200%20640%20512%22%20width%3D%22640%22%20height%3D%22512%22%20fill%3D%22rgb(253%2C201%2C116)%22%20fill-opacity%3D%221%22%3E%3Cpath%20d%3D%22M192%20384h192c53%200%2096-43%2096-96h32c70.6%200%20128-57.4%20128-128S582.6%2032%20512%2032H120c-13.3%200-24%2010.7-24%2024v232c0%2053%2043%2096%2096%2096zM512%2096c35.3%200%2064%2028.7%2064%2064s-28.7%2064-64%2064h-32V96h32zm47.7%20384H48.3c-47.6%200-61-64-36-64h583.3c25%200%2011.8%2064-35.9%2064z%22%2F%3E%3C%2Fsvg%3E"/><g transform="translate(445.5625 255)"><text font-family="Arial" font-size="12px" font-style="normal" font-weight="normal" text-decoration="none" text-anchor="middle" fill="rgb(0,0,0)" fill-opacity="1" dy="0.9333330790201823em" transform="translate(32.5 0.3000001907348633)">Runner.java</text></g><g transform="translate(12.75 99.125)" class="y-group-node yfiles-expanded"><path d="M 90.4375 0H 176.875A 4 4 0 0 1 180.875 4V 118A 4 4 0 0 1 176.875 122H 4A 4 4 0 0 1 0 118V 4A 4 4 0 0 1 4 0z" fill="rgb(11,113,137)" fill-opacity="1" class="yfiles-tab-top yfiles-group-node-tab"/><path d="M 90.4375 23H 175.875A 2 2 0 0 1 177.875 25V 117A 2 2 0 0 1 175.875 119H 5A 2 2 0 0 1 3 117V 25A 2 2 0 0 1 5 23z" fill="rgb(255,255,255)" fill-opacity="1" class="yfiles-content-transparent yfiles-group-node-content"/><path d="M 90.4375 0H 176.875A 4 4 0 0 1 180.875 4V 118A 4 4 0 0 1 176.875 122H 4A 4 4 0 0 1 0 118V 4A 4 4 0 0 1 4 0z" fill="none" stroke="rgb(11,113,137)" stroke-opacity="1" stroke-width="2" stroke-linecap="square" stroke-linejoin="miter" stroke-miterlimit="10" class="yfiles-group-node-stroke"/></g><g transform="translate(15.75 102.125)"><text font-family="Arial" font-size="12px" font-style="normal" font-weight="normal" text-decoration="none" text-anchor="middle" fill="rgb(238,238,238)" fill-opacity="1" xml:space="preserve" transform="translate(87.4375 1.3000001907348633)"><tspan class="yfiles-label-p" dy="11.199996948242188px" x="0"><tspan class="yfiles-label-strong" style="font-weight: bold;">add-provider</tspan></tspan></text></g><image width="67.5" height="60" x="73.0625" y="135.255" xlink:href="data:image/svg+xml;charset=utf-8,%3Csvg%20xmlns%3D%22http%3A%2F%2Fwww.w3.org%2F2000%2Fsvg%22%20viewBox%3D%220%200%20640%20512%22%20width%3D%22640%22%20height%3D%22512%22%20fill%3D%22rgb(253%2C201%2C116)%22%20fill-opacity%3D%221%22%3E%3Cpath%20d%3D%22M192%20384h192c53%200%2096-43%2096-96h32c70.6%200%20128-57.4%20128-128S582.6%2032%20512%2032H120c-13.3%200-24%2010.7-24%2024v232c0%2053%2043%2096%2096%2096zM512%2096c35.3%200%2064%2028.7%2064%2064s-28.7%2064-64%2064h-32V96h32zm47.7%20384H48.3c-47.6%200-61-64-36-64h583.3c25%200%2011.8%2064-35.9%2064z%22%2F%3E%3C%2Fsvg%3E"/><g transform="translate(61.3125 157.755)"><text font-family="Arial" font-size="12px" font-style="normal" font-weight="normal" text-decoration="none" text-anchor="middle" fill="rgb(0,0,0)" fill-opacity="1" dy="0.9333330790201823em" transform="translate(45.5 0.3000001907348633)">AddProvider.java</text></g><g transform="translate(16.875 244.75)" class="y-group-node yfiles-expanded"><path d="M 90.4375 0H 176.875A 4 4 0 0 1 180.875 4V 118A 4 4 0 0 1 176.875 122H 4A 4 4 0 0 1 0 118V 4A 4 4 0 0 1 4 0z" fill="rgb(11,113,137)" fill-opacity="1" class="yfiles-tab-top yfiles-group-node-tab"/><path d="M 90.4375 23H 175.875A 2 2 0 0 1 177.875 25V 117A 2 2 0 0 1 175.875 119H 5A 2 2 0 0 1 3 117V 25A 2 2 0 0 1 5 23z" fill="rgb(255,255,255)" fill-opacity="1" class="yfiles-content-transparent yfiles-group-node-content"/><path d="M 90.4375 0H 176.875A 4 4 0 0 1 180.875 4V 118A 4 4 0 0 1 176.875 122H 4A 4 4 0 0 1 0 118V 4A 4 4 0 0 1 4 0z" fill="none" stroke="rgb(11,113,137)" stroke-opacity="1" stroke-width="2" stroke-linecap="square" stroke-linejoin="miter" stroke-miterlimit="10" class="yfiles-group-node-stroke"/></g><g transform="translate(19.875 247.75)"><text font-family="Arial" font-size="12px" font-style="normal" font-weight="normal" text-decoration="none" text-anchor="middle" fill="rgb(238,238,238)" fill-opacity="1" xml:space="preserve" transform="translate(87.4375 1.3000001907348633)"><tspan class="yfiles-label-p" dy="11.199996948242188px" x="0"><tspan class="yfiles-label-strong" style="font-weight: bold;">sub-provider</tspan></tspan></text></g><image width="67.5" height="60" x="66.4375" y="279.38" xlink:href="data:image/svg+xml;charset=utf-8,%3Csvg%20xmlns%3D%22http%3A%2F%2Fwww.w3.org%2F2000%2Fsvg%22%20viewBox%3D%220%200%20640%20512%22%20width%3D%22640%22%20height%3D%22512%22%20fill%3D%22rgb(253%2C201%2C116)%22%20fill-opacity%3D%221%22%3E%3Cpath%20d%3D%22M192%20384h192c53%200%2096-43%2096-96h32c70.6%200%20128-57.4%20128-128S582.6%2032%20512%2032H120c-13.3%200-24%2010.7-24%2024v232c0%2053%2043%2096%2096%2096zM512%2096c35.3%200%2064%2028.7%2064%2064s-28.7%2064-64%2064h-32V96h32zm47.7%20384H48.3c-47.6%200-61-64-36-64h583.3c25%200%2011.8%2064-35.9%2064z%22%2F%3E%3C%2Fsvg%3E"/><g transform="translate(54.6875 301.88)"><text font-family="Arial" font-size="12px" font-style="normal" font-weight="normal" text-decoration="none" text-anchor="middle" fill="rgb(0,0,0)" fill-opacity="1" dy="0.9333330790201823em" transform="translate(45.5 0.3000001907348633)">SubProvider.java</text></g><g><path fill="none" stroke="rgb(0,0,0)" d="M 192.65377697841728,-35.995000000000005 L 580.9037769784172,-35.995000000000005" stroke-opacity="1" stroke-width="1" stroke-linecap="butt" stroke-linejoin="miter" stroke-miterlimit="10"/><use style="pointer-events: none;" transform="matrix(-0.75 0 0 -0.75 584.1234468925273 -35.995000000000005)" xlink:href="#ygc111_0"/></g><g><path fill="none" stroke="rgb(0,0,0)" d="M 488.33099222231385,238.96761162455266 L 596.9142567611199,-9.873551895665809" stroke-opacity="1" stroke-width="0.5" stroke-dasharray="1,1" stroke-dashoffset="0.5" stroke-linecap="square" stroke-linejoin="miter" stroke-miterlimit="10"/><use style="pointer-events: none;" transform="matrix(-0.19996917962947644 0.45827101937424997 -0.45827101937424997 -0.19996917962947644 597.7727030963229 -11.840860447116254)" xlink:href="#ygc111_1"/></g><g><path fill="none" stroke="rgb(0,0,0)" d="M 455.1763567095706,240.88341102729163 L 298.875,93.2525 L 187.1945574177695,-10.592233831991571" stroke-opacity="1" stroke-width="0.5" stroke-dasharray="1,1" stroke-dashoffset="0.5" stroke-linecap="square" stroke-linejoin="miter" stroke-miterlimit="10"/><use style="pointer-events: none;" transform="matrix(0.3661653855155094 0.3404745371540702 -0.3404745371540702 0.3661653855155094 185.62264851732576 -12.053854663718928)" xlink:href="#ygc111_2"/></g><g><path fill="none" stroke="rgb(0,0,0)" d="M 445.2837230215827,262.5 L 196.86880992052855,161.84019580376597" stroke-opacity="1" stroke-width="0.5" stroke-dasharray="1,1" stroke-dashoffset="0.5" stroke-linecap="square" stroke-linejoin="miter" stroke-miterlimit="10"/><use style="pointer-events: none;" transform="matrix(0.4634014172183623 0.18777413698380638 -0.18777413698380638 0.4634014172183623 194.87947711896328 161.03410148443962)" xlink:href="#ygc111_2"/></g><g><path fill="none" stroke="rgb(0,0,0)" d="M 445.2837230215827,262.5 L 201.1981740275681,304.97779504993355" stroke-opacity="1" stroke-width="0.5" stroke-dasharray="1,1" stroke-dashoffset="0.5" stroke-linecap="square" stroke-linejoin="miter" stroke-miterlimit="10"/><use style="pointer-events: none;" transform="matrix(0.49259628965258373 -0.08572569871694147 0.08572569871694147 0.49259628965258373 199.08351075610585 305.3458063206335)" xlink:href="#ygc111_2"/></g><g transform="translate(279.2787769784172 -30.995000000000005)"><text font-family="Arial" font-size="12px" font-style="normal" font-weight="normal" text-decoration="none" text-anchor="middle" fill="rgb(0,0,0)" fill-opacity="1" dy="0.9333330790201823em" transform="translate(107.5 0.3000001907348633)">access package-protected class/method</text></g><g transform="matrix(0.7269830544631151 0.6866554001269337 -0.6866554001269337 0.7269830544631151 277.1589992533333 45.23018508147456)"><text font-family="Arial" font-size="12px" font-style="normal" font-weight="normal" text-decoration="none" text-anchor="middle" fill="rgb(0,0,0)" fill-opacity="1" dy="0.9333330790201823em" transform="translate(48.5 0.3000001907348633)">call public method</text></g><g transform="matrix(0.3999383592589528 -0.9165420387484999 0.9165420387484999 0.3999383592589528 527.8083242614002 160.9990105400405)"><text font-family="Arial" font-size="12px" font-style="normal" font-weight="normal" text-decoration="none" text-anchor="middle" fill="rgb(0,0,0)" fill-opacity="1" dy="0.9333330790201823em" transform="translate(48.5 0.3000001907348633)">call public method</text></g><g transform="matrix(0.9268028344367247 0.37554827396761264 -0.37554827396761264 0.9268028344367247 298.4661398312143 181.42872230920113)"><text font-family="Arial" font-size="12px" font-style="normal" font-weight="normal" text-decoration="none" text-anchor="middle" fill="rgb(0,0,0)" fill-opacity="1" dy="0.9333330790201823em" transform="translate(32.5 0.3000001907348633)">load service</text></g><g transform="matrix(0.9851925793051675 -0.17145139743388293 0.17145139743388293 0.9851925793051675 287.79316174847975 269.6072163554645)"><text font-family="Arial" font-size="12px" font-style="normal" font-weight="normal" text-decoration="none" text-anchor="middle" fill="rgb(0,0,0)" fill-opacity="1" dy="0.9333330790201823em" transform="translate(32.5 0.3000001907348633)">load service</text></g></g></g></g><defs><path fill="rgb(0,0,0)" stroke="rgb(0,0,0)" d="M 5,-5 L 0,0 L 5,5 Z" fill-opacity="1" stroke-opacity="1" stroke-width="1" stroke-linecap="butt" stroke-linejoin="miter" stroke-miterlimit="10" id="ygc111_0"/><path fill="rgb(0,0,0)" stroke="rgb(0,0,0)" d="M 5,-5 L 0,0 L 5,5 Z" fill-opacity="1" stroke-opacity="1" stroke-width="1" stroke-linecap="butt" stroke-linejoin="miter" stroke-miterlimit="10" id="ygc111_1"/><path fill="rgb(0,0,0)" stroke="rgb(0,0,0)" d="M 5,-5 L 0,0 L 5,5 Z" fill-opacity="1" stroke-opacity="1" stroke-width="1" stroke-linecap="butt" stroke-linejoin="miter" stroke-miterlimit="10" id="ygc111_2"/></defs></svg>